<svg width="123.96099999999998" height="123.96099999999998" xmlns="http://www.w3.org/2000/svg">

 <g>
  <title>background</title>
  <rect fill="none" id="canvas_background" height="402" width="582" y="-1" x="-1"/>
 </g>
 <g>
  <title>Layer 1</title>
  <g id="svg_1">
   <path fill="#5bbc2e" id="svg_2" d="m49.8,29.032c3.1,-1.3 4.4,-5 3,-8l-4.9,-10.3c-1.4,-2.899 -4.8,-4.2 -7.8,-2.899c-8.5,3.6 -15.8,8.3 -21.6,14c-7.1,6.699 -11.9,14.399 -14.5,22.899c-2.6,8.601 -4,20.3 -4,35.2l0,30.7c0,3.3 2.7,6 6,6l39.3,0c3.3,0 6,-2.7 6,-6l0,-39.3c0,-3.301 -2.7,-6 -6,-6l-18.8,0c0.2,-10.101 2.6,-18.2 7,-24.301c3.6,-4.898 9,-8.898 16.3,-11.999z"/>
   <path fill="#5bbc2e" id="svg_3" d="m120.4,29.032c3.1,-1.3 4.399,-5 3,-8l-4.9,-10.199c-1.4,-2.9 -4.8,-4.2 -7.8,-2.9c-8.4,3.6 -15.601,8.3 -21.5,13.9c-7.101,6.8 -12,14.5 -14.601,23c-2.6,8.399 -3.899,20.1 -3.899,35.1l0,30.7c0,3.3 2.7,6 6,6l39.3,0c3.3,0 6,-2.7 6,-6l0,-39.3c0,-3.301 -2.7,-6 -6,-6l-18.9,0c0.2,-10.101 2.601,-18.2 7,-24.301c3.6,-4.899 9,-8.899 16.3,-12z"/>
  </g>
  <g id="svg_4"/>
  <g id="svg_5"/>
  <g id="svg_6"/>
  <g id="svg_7"/>
  <g id="svg_8"/>
  <g id="svg_9"/>
  <g id="svg_10"/>
  <g id="svg_11"/>
  <g id="svg_12"/>
  <g id="svg_13"/>
  <g id="svg_14"/>
  <g id="svg_15"/>
  <g id="svg_16"/>
  <g id="svg_17"/>
  <g id="svg_18"/>
 </g>
</svg>