<svg width="490.667" height="490.667" xmlns="http://www.w3.org/2000/svg">

 <g>
  <title>background</title>
  <rect fill="none" id="canvas_background" height="402" width="582" y="-1" x="-1"/>
 </g>
 <g>
  <title>Layer 1</title>
  <path id="svg_1" fill="#094584" d="m466.219,237.781l-234.667,-234.666c-2.004,-2 -4.721,-3.12 -7.552,-3.115l-192,0c-5.891,-0.011 -10.675,4.757 -10.686,10.648c-0.005,2.84 1.123,5.565 3.134,7.571l227.136,227.115l-227.136,227.114c-4.171,4.16 -4.179,10.914 -0.019,15.085c2.006,2.011 4.731,3.139 7.571,3.134l192,0c2.831,0.005 5.548,-1.115 7.552,-3.115l234.667,-234.667c4.171,-4.16 4.179,-10.914 0.019,-15.085c-0.007,-0.006 -0.013,-0.012 -0.019,-0.019z"/>
  <g id="svg_2"/>
  <g id="svg_3"/>
  <g id="svg_4"/>
  <g id="svg_5"/>
  <g id="svg_6"/>
  <g id="svg_7"/>
  <g id="svg_8"/>
  <g id="svg_9"/>
  <g id="svg_10"/>
  <g id="svg_11"/>
  <g id="svg_12"/>
  <g id="svg_13"/>
  <g id="svg_14"/>
  <g id="svg_15"/>
  <g id="svg_16"/>
 </g>
</svg>